<svg t="1682912527145" class="icon" viewBox="0 0 1024 1024" version="1.1" xmlns="http://www.w3.org/2000/svg" p-id="29661" width="200" height="200"><path d="M749.753939 128.584564 749.753939 128.584564 749.753939 128.584564c38.998199 0 70.197782 15.59928 93.596701 42.898019 27.298739 23.39892 42.898019 54.597479 42.898019 93.596701l0 0 0 0 0 0 0 0c0 38.998199-15.59928 70.197782-42.898019 97.496521-23.39892 23.39892-54.597479 38.998199-93.596701 38.998199l0 0 0 0 0-42.898019 0 0 0 0c27.298739 0 50.697659-7.79964 66.297962-27.298739 15.59928-15.59928 27.298739-38.998199 27.298739-66.297962l0 0 0 0 0 0 0 0c0-27.298739-11.69946-50.697659-27.298739-66.297962-15.59928-15.59928-38.998199-27.298739-66.297962-27.298739l0 0 0 0L749.753939 128.584564 749.753939 128.584564zM749.753939 623.865787 749.753939 623.865787 749.753939 623.865787c38.998199 0 70.197782 15.59928 93.596701 38.998199 27.298739 23.39892 42.898019 58.497299 42.898019 93.596701l0 0 0 0 0 0 0 0c0 38.998199-15.59928 74.097602-42.898019 97.496521-23.39892 23.39892-54.597479 38.998199-93.596701 38.998199l0 0 0 0 0-38.998199 0 0 0 0c27.298739 0 50.697659-11.69946 66.297962-27.298739 15.59928-19.4991 27.298739-42.898019 27.298739-70.197782l0 0 0 0 0 0 0 0c0-23.39892-11.69946-46.797839-27.298739-66.297962-15.59928-15.59928-38.998199-27.298739-66.297962-27.298739l0 0 0 0L749.753939 623.865787zM445.565938 405.473825l175.493943-101.396341c-3.89982-11.69946-7.79964-23.39892-7.79964-38.998199l0 0 0 0c0-38.998199 15.59928-70.197782 38.998199-97.496521 27.298739-23.39892 58.498322-38.998199 97.496521-38.998199l0 0 0 0 0 0 0 42.898019 0 0 0 0 0 0c-27.298739 0-50.697659 11.69946-66.297962 27.298739-19.4991 15.59928-27.298739 38.998199-27.298739 66.297962l0 0 0 0c0 11.69946 0 19.4991 3.89982 31.198559l0 0 0 3.89982c3.89982 3.89982 3.89982 3.89982 3.89982 3.89982l0 3.89982 0 0c7.79964 15.59928 23.39892 31.198559 38.998199 38.998199 3.89982 3.89982 7.79964 3.89982 11.69946 3.89982l0 0c11.69946 7.79964 23.39892 7.79964 35.098379 7.79964l0 0 0 0 0 0 0 42.898019 0 0 0 0 0 0c-19.4991 0-35.098379-3.89982-50.697659-11.69946l0 0c-3.89982 0-11.69946-3.89982-15.59928-7.79964-15.59928-7.79964-31.198559-23.39892-42.898019-38.998199L468.964858 440.572204c0 3.89982 0 3.89982 0 7.79964l0 0c11.69946 23.39892 15.59928 46.797839 15.59928 70.197782l0 0 0 0c0 31.198559-3.89982 54.597479-15.59928 81.897242l163.79346 89.696882c3.89982-11.69946 11.69946-19.4991 19.4991-27.298739 27.298739-23.39892 58.498322-38.998199 97.496521-38.998199l0 0 0 0 0 0 0 38.998199 0 0 0 0 0 0c-27.298739 0-50.697659 11.69946-66.297962 27.298739-19.4991 19.4991-27.298739 42.898019-27.298739 66.297962l0 0 0 0 0 3.89982 0 0c0 23.39892 7.79964 46.797839 27.298739 66.297962 15.59928 15.59928 38.998199 27.298739 66.297962 27.298739l0 0 0 0 0 0 0 38.998199 0 0 0 0 0 0c-38.998199 0-70.197782-15.59928-97.496521-38.998199-23.39892-23.39892-38.998199-58.498322-38.998199-93.596701l0 0 0-3.89982 0 0 0 0c0-7.79964 3.89982-19.4991 3.89982-27.298739l-171.594123-101.396341c-3.89982 3.89982-7.79964 7.79964-11.69946 11.69946-31.198559 35.098379-74.097602 54.597479-124.795261 54.597479l0 0 0 0 0-42.898019 0 0 0 0c38.998199 0 70.197782-15.59928 97.496521-35.098379 23.39892-23.39892 38.998199-58.498322 38.998199-97.496521l0 0 0 0c0-19.4991-3.89982-35.098379-11.69946-54.597479l0 0c-3.89982-3.89982-3.89982-3.89982-3.89982-7.79964-3.89982-3.89982-3.89982-7.79964-7.79964-11.69946l0 0 0 0 0 0c-11.69946-15.59928-23.39892-27.298739-38.998199-38.998199l0 0c-3.89982 0-3.89982-3.89982-7.79964-3.89982-19.4991-11.69946-42.898019-15.59928-66.297962-15.59928l0 0 0 0L309.070194 343.076706l0 0 0 0c31.198559 0 58.498322 7.79964 85.797062 23.39892 3.89982 0 7.79964 3.89982 11.69946 7.79964l0 0C422.165995 382.074905 433.865455 393.774365 445.565938 405.473825zM309.070194 694.063569 309.070194 694.063569 309.070194 694.063569c-46.797839 0-93.596701-19.4991-124.795261-54.597479-31.198559-27.298739-50.697659-70.197782-50.697659-120.895441l0 0 0 0 0 0 0 0c0-46.797839 19.4991-89.696882 50.697659-124.795261 31.198559-31.198559 77.997422-50.697659 124.795261-50.697659l0 0 0 0 0 42.898019 0 0 0 0c-38.998199 0-70.197782 15.59928-97.496521 38.998199-23.39892 23.39892-38.998199 58.497299-38.998199 93.596701l0 0 0 0 0 0 0 0c0 38.998199 15.59928 74.097602 38.998199 97.496521 27.298739 19.4991 58.498322 35.098379 97.496521 35.098379l0 0 0 0L309.070194 694.063569z" fill="#cdcdcd" p-id="29662"></path></svg>
